<svg xmlns="http://www.w3.org/2000/svg" viewBox="0 0 414.53 72.49"><defs><style>.cls-1{fill:#f5a800;}.cls-2{fill:#f5a800;}.cls-3{fill:#101f26;}</style></defs><g id="Layer_2" data-name="Layer 2"><g id="FINAL_Logos" data-name="FINAL Logos"><path class="cls-1" d="M409.51,28.42A4.87,4.87,0,0,1,406,27a4.73,4.73,0,0,1-1.47-3.51,5,5,0,0,1,10,0A4.73,4.73,0,0,1,413.06,27,4.87,4.87,0,0,1,409.51,28.42Zm0-.73a4.22,4.22,0,0,0,3-7.21,4.23,4.23,0,0,0-7.21,3,4.23,4.23,0,0,0,4.23,4.22Zm-2-1.43V20.62h2A2.6,2.6,0,0,1,411,21a1.39,1.39,0,0,1,.61,1.25,1.47,1.47,0,0,1-.34,1,1.74,1.74,0,0,1-1,.53l1.52,2.46h-1.23l-1.33-2.35h-.72v2.35Zm1-3.17h.81a1.77,1.77,0,0,0,.88-.19.66.66,0,0,0,.36-.65.63.63,0,0,0-.32-.59,1.65,1.65,0,0,0-.81-.18h-.92Z"/><polygon class="cls-2" points="285.02 52.21 299.02 52.21 299.02 57.06 279.72 57.06 279.72 14.52 285.02 14.52 285.02 52.21"/><path class="cls-2" d="M375,18.52a3.5,3.5,0,0,1-7,0,3.5,3.5,0,1,1,7,0m-1,38.48H369V30.6h5.08Z"/><path class="cls-2" d="M400,38.16a9.66,9.66,0,0,0-7.56-3.56c-5,0-8.8,4.4-8.8,9.26,0,5.41,3.78,9.36,9.14,9.36a9.48,9.48,0,0,0,7.22-3.5v6.49A14.78,14.78,0,0,1,392.72,58a13.9,13.9,0,0,1-14.16-13.88A14,14,0,0,1,393,29.86a14.37,14.37,0,0,1,7,1.75Z"/><path class="cls-2" d="M322.16,31.18l-.71,5.38A9.27,9.27,0,0,1,325,43.84a9,9,0,1,1-18.06,0,9.27,9.27,0,0,1,3.38-7.16l-.72-5.42a14.1,14.1,0,1,0,12.57-.08"/><rect class="cls-2" x="313.53" y="27.35" width="5.08" height="17.85" rx="2.41"/><path class="cls-2" d="M357.88,30.57v2.61a14.06,14.06,0,1,0-16.1,22.88,12.72,12.72,0,0,0,1.75.83,14,14,0,0,0,14.35-2.46v4c.11,9.21-11.85,12.06-16.4,5.37a9.34,9.34,0,0,1-1.25-2.66l-4.67,2.13c0,.11.09.21.13.31a13.78,13.78,0,0,0,6.95,7.54v0a14.71,14.71,0,0,0,12.41,0v0A14,14,0,0,0,363,58.46V30.57ZM348.68,53a9.21,9.21,0,1,1,9.2-9.21A9.21,9.21,0,0,1,348.68,53Z"/><path class="cls-3" d="M116.78,57.06h-5.31V14.52h6.1c13.09,0,17.15,4.51,17.15,12.3,0,9-6.83,12.41-14.9,12.41h-3Zm0-22.57h1.69c5.41,0,11.28-1,11.28-7.79s-6.32-7.44-11.56-7.44h-1.41Z"/><path class="cls-3" d="M180.2,36.69a3.9,3.9,0,0,0-3.39-2.31A2.73,2.73,0,0,0,174.05,37c0,2.32,3,3.33,6.15,4.74s6.09,3.33,6.09,7.51A8.86,8.86,0,0,1,177.21,58,9.73,9.73,0,0,1,168.07,52l4.34-2c1.07,2,2.37,3.39,4.8,3.39a3.79,3.79,0,0,0,4-3.73c0-1.41-.67-2.08-1.86-2.87l-5-2.66c-2.94-1.58-5.08-3-5.08-6.65a7.71,7.71,0,0,1,7.78-7.68,7.86,7.86,0,0,1,7.23,4.63Z"/><path class="cls-3" d="M201.66,36.69a3.9,3.9,0,0,0-3.38-2.31A2.74,2.74,0,0,0,195.51,37c0,2.32,3.05,3.33,6.15,4.74s6.1,3.33,6.1,7.51A8.87,8.87,0,0,1,198.67,58,9.74,9.74,0,0,1,189.53,52l4.35-2c1.07,2,2.37,3.39,4.79,3.39a3.79,3.79,0,0,0,4-3.73c0-1.41-.68-2.08-1.86-2.87l-5-2.66c-2.93-1.58-5.08-3-5.08-6.65a7.71,7.71,0,0,1,7.79-7.68,7.85,7.85,0,0,1,7.22,4.63Z"/><path class="cls-3" d="M218.62,18.58a3.5,3.5,0,0,1-7,0,3.5,3.5,0,1,1,7,0m-1,38.48h-5.07V30.65h5.07Z"/><polygon class="cls-3" points="235.14 47.13 242.76 30.65 248.46 30.65 235.14 57.96 221.88 30.65 227.58 30.65 235.14 47.13"/><path class="cls-3" d="M254.12,44.7c.06,4.52,3.11,8.75,8,8.75,3.89,0,6-2,7.9-5.14l4.28,2.43A13.72,13.72,0,0,1,262,58c-8.07,0-13-6.09-13-13.88,0-8.12,4.35-14.22,12.87-14.22s12.35,6.21,12.35,14v.79Zm15.07-3.84c-.62-3.94-3.22-6.6-7.28-6.6a7.57,7.57,0,0,0-7.51,6.6Z"/><path class="cls-3" d="M149,57.89a13.92,13.92,0,0,0,9.18-3.44v2.8h5.08V30.67h-5.08v2.59A14,14,0,1,0,149,57.89Zm0-23.21a9.18,9.18,0,1,1-9.18,9.18A9.18,9.18,0,0,1,149,34.68Z"/><path class="cls-2" d="M62.39,0H20.8L0,36,20.8,72h1.51V38.3h0v-.95a18.9,18.9,0,0,1,10.58-17.2l1,7.41a12.7,12.7,0,0,0-4.62,9.79,12.35,12.35,0,1,0,24.69,0,12.65,12.65,0,0,0-4.84-10l1-7.35a18.92,18.92,0,0,1,10.8,17.31A19,19,0,0,1,41.6,56.55a19.4,19.4,0,0,1-12.32-4.29V72H62.39l20.8-36ZM45.07,35.92a3.31,3.31,0,0,1-3.29,3.29h-.36a3.31,3.31,0,0,1-3.3-3.29V18.1a3.31,3.31,0,0,1,3.3-3.29h.36a3.3,3.3,0,0,1,3.29,3.29Z"/></g></g></svg>